# xmcd
#
# Track frame offsets:
# 150
# 16580
# 31816
# 45486
# 64992
# 78434
# 96656
# 111869
# 130833
# 152545
# 170250
# 181811
# 198160
# 215199
#
# Disc length: 3133 seconds
#
#
# Revision: 3
# Processed by: cddbd v1.5.1PL0 Copyright (c) Steve Scherf et al.
# Submitted via: FreeRIP 2.942 
#
DISCID=b30c3b0e
DTITLE=Cezar e Paulinho - Ao Vivo
DYEAR=2002
DGENRE=Sertanejo
TTITLE0=Nois é Cauboi
TTITLE1=Só por Você
TTITLE2=Noite Maravilhosa
TTITLE3=Pot Pourri
TTITLE4=Asa Delta
TTITLE5=Chique no Urtimo
TTITLE6=Duas Vezes Você
TTITLE7=Feitos um pro Outro
TTITLE8=Geração de Cantador
TTITLE9=Viajante Solitário
TTITLE10=Pé de Bode
TTITLE11=O Feijão e a Flor
TTITLE12=Faz de mim o seu Amor
TTITLE13=Pout Pourri 2
EXTD=2002 YEAR: 2002
EXTT0=
EXTT1=
EXTT2=
EXTT3=
EXTT4=
EXTT5=
EXTT6=
EXTT7=
EXTT8=
EXTT9=
EXTT10=
EXTT11=
EXTT12=
EXTT13=
PLAYORDER=
